<svg width="955" height="716" viewBox="0 0 955 716" fill="none" xmlns="http://www.w3.org/2000/svg">
<g clip-path="url(#clip0_62_3662)">
<g filter="url(#filter0_d_62_3662)">
<path d="M17.2505 466.041L16.3108 465.699L15.8222 467.041H17.2505V466.041ZM44.2505 391.881V390.881H43.5504L43.3108 391.539L44.2505 391.881ZM72.0905 391.881L73.0302 392.223L73.5188 390.881H72.0905V391.881ZM45.0905 466.041V467.041H45.7906L46.0302 466.383L45.0905 466.041ZM18.1902 466.383L45.1902 392.223L43.3108 391.539L16.3108 465.699L18.1902 466.383ZM44.2505 392.881H72.0905V390.881H44.2505V392.881ZM71.1508 391.539L44.1508 465.699L46.0302 466.383L73.0302 392.223L71.1508 391.539ZM45.0905 465.041H17.2505V467.041H45.0905V465.041ZM126.163 410.361L126.168 409.361L125.464 409.357L125.223 410.019L126.163 410.361ZM105.883 466.041V467.041H106.583L106.822 466.383L105.883 466.041ZM78.0428 466.041L77.1032 465.699L76.6143 467.041H78.0428V466.041ZM98.3228 410.361L99.2624 410.703L99.7513 409.361H98.3228V410.361ZM70.4828 410.361L69.5423 410.021L69.0583 411.361H70.4828V410.361ZM77.2028 391.761V390.761H76.5009L76.2623 391.421L77.2028 391.761ZM156.043 391.881L156.983 392.221L157.465 390.887L156.047 390.881L156.043 391.881ZM149.323 410.481L149.318 411.481L150.023 411.485L150.263 410.821L149.323 410.481ZM125.223 410.019L104.943 465.699L106.822 466.383L127.102 410.703L125.223 410.019ZM105.883 465.041H78.0428V467.041H105.883V465.041ZM78.9824 466.383L99.2624 410.703L97.3832 410.019L77.1032 465.699L78.9824 466.383ZM98.3228 409.361H70.4828V411.361H98.3228V409.361ZM71.4233 410.701L78.1433 392.101L76.2623 391.421L69.5423 410.021L71.4233 410.701ZM77.2028 392.761C112.242 392.761 138.521 392.801 156.038 392.881L156.047 390.881C138.525 390.801 112.243 390.761 77.2028 390.761V392.761ZM155.102 391.541L148.382 410.141L150.263 410.821L156.983 392.221L155.102 391.541ZM149.328 409.481L126.168 409.361L126.158 411.361L149.318 411.481L149.328 409.481ZM248.329 391.761L249.269 392.101L249.753 390.761H248.329V391.761ZM166.969 395.121L167.538 395.943L167.542 395.94L166.969 395.121ZM160.249 404.001L161.188 404.344L161.189 404.341L160.249 404.001ZM152.329 425.721L153.267 426.067L153.268 426.064L152.329 425.721ZM153.409 434.241L152.588 434.813L152.594 434.821L152.6 434.829L153.409 434.241ZM203.569 438.201L204.508 438.543L204.996 437.201H203.569V438.201ZM200.209 447.441V448.441H200.909L201.148 447.783L200.209 447.441ZM144.409 447.441V446.441H143.707L143.468 447.101L144.409 447.441ZM137.689 466.041L136.748 465.701L136.264 467.041H137.689V466.041ZM218.929 462.801L218.369 461.972L218.359 461.979L218.929 462.801ZM225.769 453.921L224.829 453.58L224.828 453.581L225.769 453.921ZM233.689 432.081L232.75 431.735L232.749 431.74L233.689 432.081ZM232.489 423.561L231.668 424.133L231.674 424.141L231.68 424.149L232.489 423.561ZM182.449 419.601L181.509 419.259L181.021 420.601H182.449V419.601ZM185.809 410.361V409.361H185.108L184.869 410.019L185.809 410.361ZM241.609 410.361V411.361H242.311L242.549 410.701L241.609 410.361ZM248.329 390.761H177.769V392.761H248.329V390.761ZM177.769 390.761C173.569 390.761 169.767 391.941 166.395 394.302L167.542 395.94C170.57 393.821 173.969 392.761 177.769 392.761V390.761ZM166.399 394.299C163.099 396.584 160.735 399.717 159.308 403.661L161.189 404.341C162.482 400.765 164.598 397.978 167.538 395.943L166.399 394.299ZM159.309 403.658L151.389 425.378L153.268 426.064L161.188 404.344L159.309 403.658ZM151.39 425.375C150.158 428.72 150.56 431.902 152.588 434.813L154.229 433.669C152.577 431.3 152.259 428.802 153.267 426.067L151.39 425.375ZM152.6 434.829C154.704 437.722 157.561 439.201 161.089 439.201V437.201C158.216 437.201 155.954 436.04 154.217 433.653L152.6 434.829ZM161.089 439.201H203.569V437.201H161.089V439.201ZM202.629 437.859L199.269 447.099L201.148 447.783L204.508 438.543L202.629 437.859ZM200.209 446.441H144.409V448.441H200.209V446.441ZM143.468 447.101L136.748 465.701L138.629 466.381L145.349 447.781L143.468 447.101ZM137.689 467.041H208.249V465.041H137.689V467.041ZM208.249 467.041C212.44 467.041 216.201 465.905 219.498 463.623L218.359 461.979C215.416 464.017 212.057 465.041 208.249 465.041V467.041ZM219.488 463.63C222.87 461.347 225.28 458.213 226.709 454.261L224.828 453.581C223.538 457.149 221.387 459.935 218.369 461.972L219.488 463.63ZM226.709 454.262L234.629 432.422L232.749 431.74L224.829 453.58L226.709 454.262ZM234.627 432.427C235.863 429.07 235.412 425.88 233.297 422.973L231.68 424.149C233.405 426.522 233.754 429.012 232.75 431.735L234.627 432.427ZM233.309 422.989C231.283 420.083 228.458 418.601 224.929 418.601V420.601C227.799 420.601 230.014 421.759 231.668 424.133L233.309 422.989ZM224.929 418.601H182.449V420.601H224.929V418.601ZM183.388 419.943L186.748 410.703L184.869 410.019L181.509 419.259L183.388 419.943ZM185.809 411.361H241.609V409.361H185.809V411.361ZM242.549 410.701L249.269 392.101L247.388 391.421L240.668 410.021L242.549 410.701ZM265.51 466.041L264.57 465.699L264.082 467.041H265.51V466.041ZM292.51 391.761V390.761H291.809L291.57 391.419L292.51 391.761ZM371.47 404.241L370.531 403.895L370.53 403.898L371.47 404.241ZM363.55 425.961L362.61 425.618L362.609 425.621L363.55 425.961ZM356.71 434.961L357.279 435.783L357.283 435.78L356.71 434.961ZM344.11 438.201V437.201H342.479L343.218 438.654L344.11 438.201ZM358.27 466.041V467.041H359.9L359.161 465.588L358.27 466.041ZM330.43 466.041L329.538 466.494L329.816 467.041H330.43V466.041ZM316.27 438.201L317.161 437.748L316.883 437.201H316.27V438.201ZM303.43 438.201V437.201H302.728L302.489 437.861L303.43 438.201ZM293.35 466.041V467.041H294.051L294.29 466.381L293.35 466.041ZM312.91 410.361V409.361H312.212L311.971 410.016L312.91 410.361ZM308.59 422.121L307.651 421.776L307.157 423.121H308.59V422.121ZM338.47 422.121V423.121H339.168L339.408 422.466L338.47 422.121ZM342.79 410.361L343.728 410.706L344.222 409.361H342.79V410.361ZM266.449 466.383L293.449 392.103L291.57 391.419L264.57 465.699L266.449 466.383ZM292.51 392.761H362.83V390.761H292.51V392.761ZM362.83 392.761C365.7 392.761 367.915 393.919 369.569 396.293L371.21 395.149C369.184 392.243 366.359 390.761 362.83 390.761V392.761ZM369.569 396.293C371.221 398.662 371.539 401.16 370.531 403.895L372.408 404.587C373.64 401.242 373.238 398.06 371.21 395.149L369.569 396.293ZM370.53 403.898L362.61 425.618L364.489 426.304L372.409 404.584L370.53 403.898ZM362.609 425.621C361.317 429.192 359.163 432.023 356.136 434.142L357.283 435.78C360.656 433.419 363.062 430.25 364.49 426.301L362.609 425.621ZM356.14 434.139C353.193 436.179 349.873 437.201 346.15 437.201V439.201C350.266 439.201 353.986 438.063 357.279 435.783L356.14 434.139ZM346.15 437.201H344.11V439.201H346.15V437.201ZM343.218 438.654L357.378 466.494L359.161 465.588L345.001 437.748L343.218 438.654ZM358.27 465.041H330.43V467.041H358.27V465.041ZM331.321 465.588L317.161 437.748L315.378 438.654L329.538 466.494L331.321 465.588ZM316.27 437.201H303.43V439.201H316.27V437.201ZM302.489 437.861L292.409 465.701L294.29 466.381L304.37 438.541L302.489 437.861ZM293.35 465.041H265.51V467.041H293.35V465.041ZM311.971 410.016L307.651 421.776L309.528 422.466L313.848 410.706L311.971 410.016ZM308.59 423.121H338.47V421.121H308.59V423.121ZM339.408 422.466L343.728 410.706L341.851 410.016L337.531 421.776L339.408 422.466ZM342.79 409.361H312.91V411.361H342.79V409.361ZM466.242 391.761L467.182 392.103L467.67 390.761H466.242V391.761ZM443.682 453.801L442.743 453.459L442.742 453.461L443.682 453.801ZM436.842 462.801L437.412 463.623L437.416 463.62L436.842 462.801ZM358.482 466.041L357.543 465.699L357.055 467.041H358.482V466.041ZM381.042 404.001L381.982 404.343L381.983 404.341L381.042 404.001ZM387.762 395.121L388.332 395.943L388.336 395.94L387.762 395.121ZM393.042 447.441L392.103 447.098L391.612 448.441H393.042V447.441ZM418.122 447.441V448.441H418.822L419.062 447.784L418.122 447.441ZM431.682 410.361L432.622 410.704L433.113 409.361H431.682V410.361ZM406.602 410.361V409.361H405.903L405.663 410.018L406.602 410.361ZM465.303 391.419L442.743 453.459L444.622 454.143L467.182 392.103L465.303 391.419ZM442.742 453.461C441.45 457.032 439.296 459.863 436.269 461.982L437.416 463.62C440.789 461.259 443.195 458.09 444.623 454.141L442.742 453.461ZM436.273 461.979C433.326 464.019 430.006 465.041 426.282 465.041V467.041C430.399 467.041 434.119 465.903 437.412 463.623L436.273 461.979ZM426.282 465.041H358.482V467.041H426.282V465.041ZM359.422 466.383L381.982 404.343L380.103 403.659L357.543 465.699L359.422 466.383ZM381.983 404.341C383.276 400.765 385.392 397.978 388.332 395.943L387.193 394.299C383.893 396.584 381.529 399.717 380.102 403.661L381.983 404.341ZM388.336 395.94C391.367 393.818 394.727 392.761 398.442 392.761V390.761C394.318 390.761 390.558 391.944 387.189 394.302L388.336 395.94ZM398.442 392.761H466.242V390.761H398.442V392.761ZM393.042 448.441H418.122V446.441H393.042V448.441ZM419.062 447.784L432.622 410.704L430.743 410.018L417.183 447.098L419.062 447.784ZM431.682 409.361H406.602V411.361H431.682V409.361ZM405.663 410.018L392.103 447.098L393.982 447.784L407.542 410.704L405.663 410.018ZM450.284 466.041L449.344 465.699L448.856 467.041H450.284V466.041ZM477.284 391.761V390.761H476.583L476.344 391.419L477.284 391.761ZM556.244 404.241L555.305 403.895L555.304 403.899L556.244 404.241ZM550.124 421.041L551.038 421.446L551.052 421.415L551.063 421.383L550.124 421.041ZM540.404 428.841L540.33 427.844L540.404 429.841V428.841ZM540.884 428.841L541.2 427.892L541.046 427.841H540.884V428.841ZM541.484 429.081L541.036 429.975L541.247 430.081H541.484V429.081ZM542.324 429.201L542.081 430.171L542.324 429.201ZM543.164 429.561L542.609 430.393L542.661 430.428L542.716 430.455L543.164 429.561ZM544.004 430.281L543.204 430.881L543.289 430.995L543.404 431.081L544.004 430.281ZM544.724 431.241L543.795 431.612L543.811 431.651L543.829 431.688L544.724 431.241ZM545.084 432.561L544.094 432.702L544.095 432.714L544.097 432.725L545.084 432.561ZM544.964 434.361L543.987 434.144L543.976 434.197L543.97 434.251L544.964 434.361ZM544.484 436.641L545.423 436.983L545.433 436.956L545.441 436.928L544.484 436.641ZM538.244 453.801L537.304 453.459L537.303 453.461L538.244 453.801ZM531.404 462.801L531.973 463.623L531.977 463.62L531.404 462.801ZM497.084 410.361V409.361H496.405L496.154 409.991L497.084 410.361ZM492.404 422.121L491.474 421.751L490.929 423.121H492.404V422.121ZM522.764 422.121V423.121H523.435L523.689 422.499L522.764 422.121ZM527.564 410.361L528.489 410.739L529.052 409.361H527.564V410.361ZM518.444 435.441L519.381 435.788L519.88 434.441H518.444V435.441ZM488.084 435.441V434.441H487.387L487.146 435.094L488.084 435.441ZM483.644 447.441L482.706 447.094L482.207 448.441H483.644V447.441ZM514.004 447.441V448.441H514.7L514.941 447.788L514.004 447.441ZM451.223 466.383L478.223 392.103L476.344 391.419L449.344 465.699L451.223 466.383ZM477.284 392.761H547.604V390.761H477.284V392.761ZM547.604 392.761C550.474 392.761 552.689 393.919 554.343 396.293L555.984 395.149C553.958 392.243 551.133 390.761 547.604 390.761V392.761ZM554.343 396.293C555.995 398.662 556.313 401.16 555.305 403.895L557.182 404.587C558.414 401.242 558.012 398.06 555.984 395.149L554.343 396.293ZM555.304 403.899L549.184 420.699L551.063 421.383L557.183 404.583L555.304 403.899ZM549.209 420.636C547.157 425.272 544.19 427.558 540.33 427.844L540.477 429.838C545.257 429.484 548.77 426.57 551.038 421.446L549.209 420.636ZM540.404 429.841H540.884V427.841H540.404V429.841ZM540.567 429.79C540.779 429.86 540.932 429.923 541.036 429.975L541.931 428.187C541.715 428.079 541.468 427.982 541.2 427.892L540.567 429.79ZM541.484 430.081C541.618 430.081 541.813 430.104 542.081 430.171L542.566 428.231C542.194 428.138 541.829 428.081 541.484 428.081V430.081ZM542.081 430.171C542.306 430.227 542.477 430.305 542.609 430.393L543.718 428.729C543.37 428.497 542.982 428.335 542.566 428.231L542.081 430.171ZM542.716 430.455C542.882 430.538 543.046 430.67 543.204 430.881L544.804 429.681C544.482 429.252 544.085 428.904 543.611 428.667L542.716 430.455ZM543.404 431.081C543.566 431.202 543.698 431.369 543.795 431.612L545.652 430.87C545.429 430.313 545.082 429.84 544.604 429.481L543.404 431.081ZM543.829 431.688C543.921 431.873 544.021 432.195 544.094 432.702L546.074 432.42C545.986 431.808 545.846 431.249 545.618 430.794L543.829 431.688ZM544.097 432.725C544.148 433.031 544.132 433.491 543.987 434.144L545.94 434.578C546.115 433.791 546.179 433.051 546.07 432.397L544.097 432.725ZM543.97 434.251C543.897 434.902 543.751 435.603 543.526 436.354L545.441 436.928C545.696 436.079 545.87 435.26 545.957 434.471L543.97 434.251ZM543.544 436.299L537.304 453.459L539.183 454.143L545.423 436.983L543.544 436.299ZM537.303 453.461C536.011 457.032 533.857 459.863 530.83 461.982L531.977 463.62C535.35 461.259 537.756 458.09 539.184 454.141L537.303 453.461ZM530.834 461.979C527.887 464.019 524.567 465.041 520.844 465.041V467.041C524.96 467.041 528.68 465.903 531.973 463.623L530.834 461.979ZM520.844 465.041H450.284V467.041H520.844V465.041ZM496.154 409.991L491.474 421.751L493.333 422.491L498.013 410.731L496.154 409.991ZM492.404 423.121H522.764V421.121H492.404V423.121ZM523.689 422.499L528.489 410.739L526.638 409.983L521.838 421.743L523.689 422.499ZM527.564 409.361H497.084V411.361H527.564V409.361ZM518.444 434.441H488.084V436.441H518.444V434.441ZM487.146 435.094L482.706 447.094L484.581 447.788L489.021 435.788L487.146 435.094ZM483.644 448.441H514.004V446.441H483.644V448.441ZM514.941 447.788L519.381 435.788L517.506 435.094L513.066 447.094L514.941 447.788ZM652.188 391.761L653.128 392.103L653.616 390.761H652.188V391.761ZM629.628 453.801L628.689 453.459L628.688 453.461L629.628 453.801ZM622.788 462.801L623.358 463.623L623.362 463.62L622.788 462.801ZM544.428 466.041L543.489 465.699L543.001 467.041H544.428V466.041ZM566.988 404.001L567.928 404.343L567.929 404.341L566.988 404.001ZM573.708 395.121L574.278 395.943L574.282 395.94L573.708 395.121ZM578.988 447.441L578.049 447.098L577.558 448.441H578.988V447.441ZM604.068 447.441V448.441H604.767L605.008 447.784L604.068 447.441ZM617.628 410.361L618.568 410.704L619.059 409.361H617.628V410.361ZM592.548 410.361V409.361H591.849L591.609 410.018L592.548 410.361ZM651.249 391.419L628.689 453.459L630.568 454.143L653.128 392.103L651.249 391.419ZM628.688 453.461C627.396 457.032 625.242 459.863 622.215 461.982L623.362 463.62C626.735 461.259 629.141 458.09 630.569 454.141L628.688 453.461ZM622.219 461.979C619.272 464.019 615.952 465.041 612.228 465.041V467.041C616.345 467.041 620.065 465.903 623.358 463.623L622.219 461.979ZM612.228 465.041H544.428V467.041H612.228V465.041ZM545.368 466.383L567.928 404.343L566.049 403.659L543.489 465.699L545.368 466.383ZM567.929 404.341C569.222 400.765 571.338 397.978 574.278 395.943L573.139 394.299C569.839 396.584 567.475 399.717 566.048 403.661L567.929 404.341ZM574.282 395.94C577.313 393.818 580.673 392.761 584.388 392.761V390.761C580.264 390.761 576.504 391.944 573.135 394.302L574.282 395.94ZM584.388 392.761H652.188V390.761H584.388V392.761ZM578.988 448.441H604.068V446.441H578.988V448.441ZM605.008 447.784L618.568 410.704L616.689 410.018L603.129 447.098L605.008 447.784ZM617.628 409.361H592.548V411.361H617.628V409.361ZM591.609 410.018L578.049 447.098L579.928 447.784L593.488 410.704L591.609 410.018ZM706.309 410.361L706.315 409.361L705.611 409.357L705.37 410.019L706.309 410.361ZM686.03 466.041V467.041H686.73L686.969 466.383L686.03 466.041ZM658.189 466.041L657.25 465.699L656.761 467.041H658.189V466.041ZM678.47 410.361L679.409 410.703L679.898 409.361H678.47V410.361ZM650.629 410.361L649.689 410.021L649.205 411.361H650.629V410.361ZM657.35 391.761V390.761H656.648L656.409 391.421L657.35 391.761ZM736.189 391.881L737.13 392.221L737.612 390.887L736.194 390.881L736.189 391.881ZM729.47 410.481L729.464 411.481L730.17 411.485L730.41 410.821L729.47 410.481ZM705.37 410.019L685.09 465.699L686.969 466.383L707.249 410.703L705.37 410.019ZM686.03 465.041H658.189V467.041H686.03V465.041ZM659.129 466.383L679.409 410.703L677.53 410.019L657.25 465.699L659.129 466.383ZM678.47 409.361H650.629V411.361H678.47V409.361ZM651.57 410.701L658.29 392.101L656.409 391.421L649.689 410.021L651.57 410.701ZM657.35 392.761C692.389 392.761 718.667 392.801 736.185 392.881L736.194 390.881C718.672 390.801 692.39 390.761 657.35 390.761V392.761ZM735.249 391.541L728.529 410.141L730.41 410.821L737.13 392.221L735.249 391.541ZM729.475 409.481L706.315 409.361L706.304 411.361L729.464 411.481L729.475 409.481ZM717.835 466.041L716.896 465.699L716.407 467.041H717.835V466.041ZM744.835 391.881V390.881H744.135L743.896 391.539L744.835 391.881ZM772.675 391.881L773.615 392.223L774.103 390.881H772.675V391.881ZM745.675 466.041V467.041H746.375L746.615 466.383L745.675 466.041ZM718.775 466.383L745.775 392.223L743.896 391.539L716.896 465.699L718.775 466.383ZM744.835 392.881H772.675V390.881H744.835V392.881ZM771.736 391.539L744.736 465.699L746.615 466.383L773.615 392.223L771.736 391.539ZM745.675 465.041H717.835V467.041H745.675V465.041ZM856.508 391.761L857.448 392.101L857.932 390.761H856.508V391.761ZM783.188 395.121L783.757 395.943L783.761 395.94L783.188 395.121ZM776.468 404.001L777.408 404.342L777.408 404.341L776.468 404.001ZM758.468 453.561L759.403 453.915L759.408 453.902L758.468 453.561ZM759.548 462.081L758.719 462.641L758.727 462.653L759.548 462.081ZM829.508 466.041V467.041H830.21L830.448 466.381L829.508 466.041ZM836.228 447.441L837.168 447.781L837.652 446.441H836.228V447.441ZM788.468 447.441L787.528 447.098L787.037 448.441H788.468V447.441ZM802.028 410.361V409.361H801.328L801.088 410.018L802.028 410.361ZM849.788 410.361V411.361H850.49L850.728 410.701L849.788 410.361ZM856.508 390.761H793.868V392.761H856.508V390.761ZM793.868 390.761C789.743 390.761 785.983 391.944 782.614 394.302L783.761 395.94C786.792 393.818 790.152 392.761 793.868 392.761V390.761ZM782.618 394.299C779.318 396.584 776.954 399.717 775.527 403.661L777.408 404.341C778.701 400.765 780.817 397.978 783.757 395.943L782.618 394.299ZM775.528 403.66L757.528 453.22L759.408 453.902L777.408 404.342L775.528 403.66ZM757.532 453.207C756.292 456.484 756.705 459.664 758.719 462.641L760.376 461.521C758.71 459.058 758.403 456.558 759.403 453.915L757.532 453.207ZM758.727 462.653C760.753 465.559 763.578 467.041 767.108 467.041V465.041C764.237 465.041 762.022 463.883 760.368 461.509L758.727 462.653ZM767.108 467.041H829.508V465.041H767.108V467.041ZM830.448 466.381L837.168 447.781L835.287 447.101L828.567 465.701L830.448 466.381ZM836.228 446.441H788.468V448.441H836.228V446.441ZM789.407 447.784L802.967 410.704L801.088 410.018L787.528 447.098L789.407 447.784ZM802.028 411.361H849.788V409.361H802.028V411.361ZM850.728 410.701L857.448 392.101L855.567 391.421L848.847 410.021L850.728 410.701ZM949.968 391.761L950.909 392.101L951.393 390.761H949.968V391.761ZM868.608 395.121L869.177 395.943L869.181 395.94L868.608 395.121ZM861.888 404.001L862.827 404.344L862.828 404.341L861.888 404.001ZM853.968 425.721L854.906 426.067L854.908 426.064L853.968 425.721ZM855.048 434.241L854.228 434.813L854.233 434.821L854.239 434.829L855.048 434.241ZM905.208 438.201L906.148 438.543L906.636 437.201H905.208V438.201ZM901.848 447.441V448.441H902.548L902.788 447.783L901.848 447.441ZM846.048 447.441V446.441H845.346L845.108 447.101L846.048 447.441ZM839.328 466.041L838.387 465.701L837.903 467.041H839.328V466.041ZM920.568 462.801L920.009 461.972L919.999 461.979L920.568 462.801ZM927.408 453.921L926.468 453.58L926.468 453.581L927.408 453.921ZM935.328 432.081L934.39 431.735L934.388 431.74L935.328 432.081ZM934.128 423.561L933.308 424.133L933.313 424.141L933.319 424.149L934.128 423.561ZM884.088 419.601L883.148 419.259L882.66 420.601H884.088V419.601ZM887.448 410.361V409.361H886.748L886.508 410.019L887.448 410.361ZM943.248 410.361V411.361H943.95L944.189 410.701L943.248 410.361ZM949.968 390.761H879.408V392.761H949.968V390.761ZM879.408 390.761C875.208 390.761 871.407 391.941 868.035 394.302L869.181 395.94C872.209 393.821 875.608 392.761 879.408 392.761V390.761ZM868.039 394.299C864.739 396.584 862.374 399.717 860.948 403.661L862.828 404.341C864.122 400.765 866.237 397.978 869.177 395.943L868.039 394.299ZM860.949 403.658L853.029 425.378L854.908 426.064L862.827 404.344L860.949 403.658ZM853.03 425.375C851.798 428.72 852.199 431.902 854.228 434.813L855.868 433.669C854.217 431.3 853.898 428.802 854.906 426.067L853.03 425.375ZM854.239 434.829C856.343 437.722 859.201 439.201 862.728 439.201V437.201C859.855 437.201 857.593 436.04 855.857 433.653L854.239 434.829ZM862.728 439.201H905.208V437.201H862.728V439.201ZM904.268 437.859L900.908 447.099L902.788 447.783L906.148 438.543L904.268 437.859ZM901.848 446.441H846.048V448.441H901.848V446.441ZM845.108 447.101L838.387 465.701L840.269 466.381L846.988 447.781L845.108 447.101ZM839.328 467.041H909.888V465.041H839.328V467.041ZM909.888 467.041C914.08 467.041 917.841 465.905 921.137 463.623L919.999 461.979C917.055 464.017 913.696 465.041 909.888 465.041V467.041ZM921.127 463.63C924.51 461.347 926.919 458.213 928.348 454.261L926.468 453.581C925.177 457.149 923.026 459.935 920.009 461.972L921.127 463.63ZM928.348 454.262L936.268 432.422L934.388 431.74L926.468 453.58L928.348 454.262ZM936.266 432.427C937.503 429.07 937.051 425.88 934.937 422.973L933.319 424.149C935.045 426.522 935.393 429.012 934.39 431.735L936.266 432.427ZM934.948 422.989C932.923 420.083 930.097 418.601 926.568 418.601V420.601C929.439 420.601 931.653 421.759 933.308 424.133L934.948 422.989ZM926.568 418.601H884.088V420.601H926.568V418.601ZM885.028 419.943L888.388 410.703L886.508 410.019L883.148 419.259L885.028 419.943ZM887.448 411.361H943.248V409.361H887.448V411.361ZM944.189 410.701L950.909 392.101L949.027 391.421L942.308 410.021L944.189 410.701Z" fill="white"/>
</g>
<g filter="url(#filter1_d_62_3662)">
<path d="M17.2505 408.791L44.2505 334.631H72.0905L45.0905 408.791H17.2505ZM126.163 353.111L105.883 408.791H78.0428L98.3228 353.111H70.4828L77.2028 334.511C112.243 334.511 138.523 334.551 156.043 334.631L149.323 353.231L126.163 353.111ZM248.329 334.511H177.769C173.769 334.511 170.169 335.631 166.969 337.871C163.849 340.031 161.609 342.991 160.249 346.751L152.329 368.471C151.209 371.511 151.569 374.351 153.409 376.991C155.329 379.631 157.889 380.951 161.089 380.951H203.569L200.209 390.191H144.409L137.689 408.791H208.249C212.249 408.791 215.809 407.711 218.929 405.551C222.129 403.391 224.409 400.431 225.769 396.671L233.689 374.831C234.809 371.791 234.409 368.951 232.489 366.311C230.649 363.671 228.129 362.351 224.929 362.351H182.449L185.809 353.111H241.609L248.329 334.511ZM265.51 408.791L292.51 334.511H362.83C366.03 334.511 368.55 335.831 370.39 338.471C372.23 341.111 372.59 343.951 371.47 346.991L363.55 368.711C362.19 372.471 359.91 375.471 356.71 377.711C353.59 379.871 350.07 380.951 346.15 380.951H344.11L358.27 408.791H330.43L316.27 380.951H303.43L293.35 408.791H265.51ZM312.91 353.111L308.59 364.871H338.47L342.79 353.111H312.91ZM466.242 334.511L443.682 396.551C442.322 400.311 440.042 403.311 436.842 405.551C433.722 407.711 430.202 408.791 426.282 408.791H358.482L381.042 346.751C382.402 342.991 384.642 340.031 387.762 337.871C390.962 335.631 394.522 334.511 398.442 334.511H466.242ZM393.042 390.191H418.122L431.682 353.111H406.602L393.042 390.191ZM450.284 408.791L477.284 334.511H547.604C550.804 334.511 553.324 335.831 555.164 338.471C557.004 341.111 557.364 343.951 556.244 346.991L550.124 363.791C547.964 368.671 544.724 371.271 540.404 371.591H540.884C541.124 371.671 541.324 371.751 541.484 371.831C541.724 371.831 542.004 371.871 542.324 371.951C542.644 372.031 542.924 372.151 543.164 372.311C543.484 372.471 543.764 372.711 544.004 373.031C544.324 373.271 544.564 373.591 544.724 373.991C544.884 374.311 545.004 374.751 545.084 375.311C545.164 375.791 545.124 376.391 544.964 377.111C544.884 377.831 544.724 378.591 544.484 379.391L538.244 396.551C536.884 400.311 534.604 403.311 531.404 405.551C528.284 407.711 524.764 408.791 520.844 408.791H450.284ZM497.084 353.111L492.404 364.871H522.764L527.564 353.111H497.084ZM518.444 378.191H488.084L483.644 390.191H514.004L518.444 378.191ZM652.188 334.511L629.628 396.551C628.268 400.311 625.988 403.311 622.788 405.551C619.668 407.711 616.148 408.791 612.228 408.791H544.428L566.988 346.751C568.348 342.991 570.588 340.031 573.708 337.871C576.908 335.631 580.468 334.511 584.388 334.511H652.188ZM578.988 390.191H604.068L617.628 353.111H592.548L578.988 390.191ZM706.31 353.111L686.03 408.791H658.189L678.47 353.111H650.629L657.349 334.511C692.389 334.511 718.67 334.551 736.19 334.631L729.47 353.231L706.31 353.111ZM717.835 408.791L744.835 334.631H772.675L745.675 408.791H717.835ZM856.508 334.511H793.868C789.948 334.511 786.388 335.631 783.188 337.871C780.068 340.031 777.828 342.991 776.468 346.751L758.468 396.311C757.348 399.271 757.708 402.111 759.548 404.831C761.388 407.471 763.908 408.791 767.108 408.791H829.508L836.228 390.191H788.468L802.028 353.111H849.788L856.508 334.511ZM949.968 334.511H879.408C875.408 334.511 871.808 335.631 868.608 337.871C865.488 340.031 863.248 342.991 861.888 346.751L853.968 368.471C852.848 371.511 853.208 374.351 855.048 376.991C856.968 379.631 859.528 380.951 862.728 380.951H905.208L901.848 390.191H846.048L839.328 408.791H909.888C913.888 408.791 917.448 407.711 920.568 405.551C923.768 403.391 926.048 400.431 927.408 396.671L935.328 374.831C936.448 371.791 936.048 368.951 934.128 366.311C932.288 363.671 929.768 362.351 926.568 362.351H884.088L887.448 353.111H943.248L949.968 334.511Z" fill="white"/>
</g>
</g>
<rect x="1" y="1" width="953" height="714" stroke="black" stroke-miterlimit="0" stroke-linejoin="bevel"/>
<defs>
<filter id="filter0_d_62_3662" x="-2.7495" y="371.761" width="978.717" height="120.28" filterUnits="userSpaceOnUse" color-interpolation-filters="sRGB">
<feFlood flood-opacity="0" result="BackgroundImageFix"/>
<feColorMatrix in="SourceAlpha" type="matrix" values="0 0 0 0 0 0 0 0 0 0 0 0 0 0 0 0 0 0 127 0" result="hardAlpha"/>
<feOffset dx="3" dy="3"/>
<feGaussianBlur stdDeviation="11.5"/>
<feColorMatrix type="matrix" values="0 0 0 0 0 0 0 0 0 0 0 0 0 0 0 0 0 0 0.303103 0"/>
<feBlend mode="normal" in2="BackgroundImageFix" result="effect1_dropShadow_62_3662"/>
<feBlend mode="normal" in="SourceGraphic" in2="effect1_dropShadow_62_3662" result="shape"/>
</filter>
<filter id="filter1_d_62_3662" x="-2.7495" y="314.511" width="978.717" height="120.28" filterUnits="userSpaceOnUse" color-interpolation-filters="sRGB">
<feFlood flood-opacity="0" result="BackgroundImageFix"/>
<feColorMatrix in="SourceAlpha" type="matrix" values="0 0 0 0 0 0 0 0 0 0 0 0 0 0 0 0 0 0 127 0" result="hardAlpha"/>
<feOffset dx="3" dy="3"/>
<feGaussianBlur stdDeviation="11.5"/>
<feColorMatrix type="matrix" values="0 0 0 0 0 0 0 0 0 0 0 0 0 0 0 0 0 0 0.303103 0"/>
<feBlend mode="normal" in2="BackgroundImageFix" result="effect1_dropShadow_62_3662"/>
<feBlend mode="normal" in="SourceGraphic" in2="effect1_dropShadow_62_3662" result="shape"/>
</filter>
<clipPath id="clip0_62_3662">
<rect x="1" y="1" width="953" height="714" fill="white"/>
</clipPath>
</defs>
</svg>
